<svg width="30" height="30" viewBox="0 0 30 30" fill="none" xmlns="http://www.w3.org/2000/svg">
<path d="M8.4375 3.75V6.5625M21.5625 3.75V6.5625M3.75 23.4375V9.375C3.75 7.8217 5.0092 6.5625 6.5625 6.5625H23.4375C24.9908 6.5625 26.25 7.8217 26.25 9.375V23.4375M3.75 23.4375C3.75 24.9908 5.0092 26.25 6.5625 26.25H23.4375C24.9908 26.25 26.25 24.9908 26.25 23.4375M3.75 23.4375V14.0625C3.75 12.5092 5.0092 11.25 6.5625 11.25H23.4375C24.9908 11.25 26.25 12.5092 26.25 14.0625V23.4375M15 15.9375H15.0094V15.9469H15V15.9375ZM15 18.75H15.0094V18.7594H15V18.75ZM15 21.5625H15.0094V21.5719H15V21.5625ZM12.1875 18.75H12.1969V18.7594H12.1875V18.75ZM12.1875 21.5625H12.1969V21.5719H12.1875V21.5625ZM9.375 18.75H9.38438V18.7594H9.375V18.75ZM9.375 21.5625H9.38438V21.5719H9.375V21.5625ZM17.8125 15.9375H17.8219V15.9469H17.8125V15.9375ZM17.8125 18.75H17.8219V18.7594H17.8125V18.75ZM17.8125 21.5625H17.8219V21.5719H17.8125V21.5625ZM20.625 15.9375H20.6344V15.9469H20.625V15.9375ZM20.625 18.75H20.6344V18.7594H20.625V18.75Z" stroke="#F6F6F6" stroke-width="1.5" stroke-linecap="round" stroke-linejoin="round"/>
</svg>
