<svg width="30" height="30" viewBox="0 0 30 30" fill="none" xmlns="http://www.w3.org/2000/svg">
<path d="M11.25 8.43753V18.75M18.75 11.25V21.5625M19.3789 25.9356L25.4726 22.8887C25.9491 22.6505 26.25 22.1636 26.25 21.6309V6.02539C26.25 4.98001 25.1499 4.30009 24.2149 4.7676L19.3789 7.18558C18.983 7.38353 18.517 7.38353 18.1211 7.18558L11.8789 4.06448C11.483 3.86653 11.017 3.86653 10.6211 4.06448L4.52736 7.11135C4.05094 7.34956 3.75 7.83649 3.75 8.36914V23.9747C3.75 25.0201 4.85013 25.7 5.78514 25.2325L10.6211 22.8145C11.017 22.6165 11.483 22.6165 11.8789 22.8145L18.1211 25.9356C18.517 26.1335 18.983 26.1335 19.3789 25.9356Z" stroke="#F6F6F6" stroke-width="1.5" stroke-linecap="round" stroke-linejoin="round"/>
</svg>
