<svg width="250" height="208" viewBox="0 0 250 208" fill="none" xmlns="http://www.w3.org/2000/svg">
<path opacity="0.4" d="M239.052 44.9251H56.2898V191.084H239.052V44.9251Z" fill="#57E5D4"/>
<path opacity="0.4" d="M237.88 117.622V190.749H56.54V44.5905H97.9619C128.991 109.375 193.341 118.438 237.88 117.622Z" fill="#57E5D4"/>
<path d="M208.96 167.643L208.87 172.517L208.235 206.492C208.231 206.704 208.088 206.872 207.914 206.872C207.614 206.872 207.367 206.585 207.355 206.221L206.326 174.054L206.122 167.643L208.96 167.643Z" fill="#283C61"/>
<path d="M208.96 167.643L208.87 172.517C208.069 172.841 207.123 173.332 206.326 174.054L206.122 167.643H208.96Z" fill="#192845"/>
<path d="M81.3064 167.643L81.2155 172.517L80.5811 206.492C80.5771 206.704 80.4347 206.872 80.2601 206.872C79.9598 206.872 79.7131 206.585 79.7014 206.221L78.6721 174.054L78.4678 167.643L81.3064 167.643Z" fill="#283C61"/>
<path d="M81.3064 167.643L81.2155 172.517C80.415 172.841 79.4688 173.332 78.6721 174.054L78.4678 167.643H81.3064Z" fill="#192845"/>
<path d="M215.535 169.278H71.894C70.8927 169.278 70.0737 168.459 70.0737 167.458V157.007C70.0737 156.006 70.893 155.186 71.8942 155.186H215.534C216.536 155.186 217.355 156.006 217.355 157.007V167.458C217.355 168.459 216.536 169.278 215.535 169.278Z" fill="#283C61"/>
<path d="M21.4093 207.222H15.2256L17.6734 67.7723L18.0408 46.8568H20.9681L21.0211 65.6723L21.4093 207.222Z" fill="#FFD524"/>
<path d="M21.021 65.6723C20.0404 66.1592 18.8763 66.8416 17.6733 67.7721L18.0409 46.8566H20.9683L21.021 65.6723Z" fill="#F2B111"/>
<path d="M34.7561 50.0988H1.87857C0.845229 50.0988 0 49.2534 0 48.2203V1.87858C0 0.84524 0.845229 0 1.87857 0H34.7561C35.7894 0 36.6346 0.845474 36.6346 1.87858V48.2203C36.6349 49.2536 35.7894 50.0988 34.7561 50.0988Z" fill="#FFD524"/>
<path d="M32.8188 47.7574H3.81649C2.89044 47.7574 2.13306 47 2.13306 46.0739V3.91836C2.13306 2.99255 2.89044 2.23492 3.81649 2.23492H32.8188C33.7446 2.23492 34.502 2.99255 34.502 3.91836V46.0739C34.502 47 33.7444 47.7574 32.8188 47.7574Z" fill="#EDF4FF"/>
<path d="M12.4258 19.7407C12.2689 18.7825 11.4958 18.0118 10.5376 17.8548C8.95635 17.5948 7.60933 18.9418 7.86936 20.5231C8.02632 21.4813 8.79939 22.252 9.7552 22.4089C11.3365 22.669 12.6859 21.3219 12.4258 19.7407ZM10.1464 21.1603C9.5795 21.1603 9.118 20.6988 9.118 20.1319C9.118 19.565 9.5795 19.1035 10.1464 19.1035C10.7157 19.1035 11.1748 19.565 11.1748 20.1319C11.1748 20.6988 10.7157 21.1603 10.1464 21.1603Z" fill="#363C54"/>
<path d="M27.9296 19.743C27.7726 18.7872 27.0019 18.0141 26.0461 17.8548C24.4624 17.5924 23.1131 18.9395 23.3731 20.5231C23.5301 21.4813 24.3031 22.2543 25.2589 22.4089C26.8402 22.669 28.1849 21.3243 27.9296 19.743ZM26.6669 20.2935C26.6013 20.7269 26.2475 21.0806 25.8141 21.1486C25.1184 21.2563 24.5257 20.6613 24.6358 19.9656C24.7037 19.5322 25.0575 19.1808 25.4909 19.1152C26.1866 19.0121 26.7723 19.6024 26.6669 20.2935Z" fill="#363C54"/>
<path d="M31.3545 13.9823L30.2394 10.9673C30.0215 10.3817 29.464 9.9928 28.8408 9.9928H8.82287C8.3356 9.9928 7.88113 10.2388 7.61172 10.6441L5.46117 13.8839C5.27141 14.1721 5.16833 14.5094 5.16833 14.8561V18.9324C5.16833 19.5953 5.7048 20.1318 6.36777 20.1318C6.59501 20.1318 6.80351 20.0522 6.96984 19.921C7.13851 19.7874 7.26032 19.6 7.31889 19.3822C7.65155 18.1289 8.79242 17.2058 10.1465 17.2058C11.4724 17.2058 12.5899 18.0843 12.9506 19.2908C13.1006 19.7921 13.5667 20.1318 14.0892 20.1318H21.8715C22.3236 20.1318 22.7078 19.8179 22.8226 19.3798C23.1552 18.1288 24.2961 17.2058 25.6502 17.2058C26.9855 17.2058 28.1099 18.0984 28.4613 19.3213C28.6019 19.8062 29.0564 20.1318 29.5624 20.1318H30.4221C30.9984 20.1318 31.467 19.6633 31.467 19.087V14.6032C31.467 14.39 31.4295 14.1815 31.3545 13.9823ZM10.7579 13.6333C10.7579 13.9753 10.4791 14.2541 10.1371 14.2541H7.53207C7.12914 14.2541 6.87613 13.8184 7.07525 13.467L8.24424 11.4195C8.47616 11.0118 8.90955 10.7589 9.38042 10.7589H10.1371C10.4791 10.7589 10.7579 11.0376 10.7579 11.3797V13.6333ZM16.6778 13.6333C16.6778 13.9753 16.4014 14.2541 16.057 14.2541H12.4751C12.133 14.2541 11.8543 13.9753 11.8543 13.6333V11.3797C11.8543 11.0376 12.133 10.7589 12.4751 10.7589H16.057C16.4014 10.7589 16.6778 11.0376 16.6778 11.3797V13.6333ZM22.6094 13.6333C22.6094 13.9753 22.3306 14.2541 21.9886 14.2541H18.4043C18.0623 14.2541 17.7835 13.9753 17.7835 13.6333V11.3797C17.7835 11.0376 18.0623 10.7589 18.4043 10.7589H21.9886C22.3306 10.7589 22.6094 11.0376 22.6094 11.3797V13.6333ZM28.5761 13.6333C28.5761 13.9753 28.2973 14.2541 27.9553 14.2541H24.3734C24.0314 14.2541 23.7526 13.9753 23.7526 13.6333V11.3797C23.7526 11.0376 24.0314 10.7589 24.3734 10.7589H27.9553C28.2973 10.7589 28.5761 11.0376 28.5761 11.3797V13.6333Z" fill="#363C54"/>
<path d="M14.6515 30.2942C15.0099 30.0951 15.3074 29.7812 15.3074 29.2189C15.3074 28.8605 15.1949 28.5841 14.9654 28.3545C14.6819 28.071 14.2321 27.9141 13.6605 27.9141H11.3436V32.9039H13.7191C14.8459 32.9039 15.5862 32.4471 15.5862 31.5358C15.5862 30.8517 15.2301 30.5168 14.6515 30.2942ZM12.4142 28.8769H13.4965C13.9604 28.8769 14.2181 29.062 14.2181 29.3899C14.2181 29.7741 13.9112 29.9311 13.4262 29.9311H12.4142V28.8769ZM13.7191 31.9411H12.4142V30.8447H13.6839C14.2462 30.8447 14.4945 31.0509 14.4945 31.3859C14.4945 31.7701 14.204 31.9411 13.7191 31.9411Z" fill="#363C54"/>
<path d="M19.6647 27.9141V30.7721C19.6647 31.5639 19.2594 31.9716 18.5894 31.9716C17.9171 31.9716 17.5118 31.5499 17.5118 30.737V27.9141H16.4131V30.7651C16.4131 32.2339 17.233 32.9836 18.573 32.9836C19.9154 32.9836 20.7634 32.2409 20.7634 30.7299V27.9141H19.6647Z" fill="#363C54"/>
<path d="M23.9073 29.917C23.0452 29.6968 22.8321 29.589 22.8321 29.2611C22.8321 29.0034 23.0523 28.8113 23.4739 28.8113C23.8933 28.8113 24.329 28.9964 24.7694 29.3032L25.341 28.4763C24.835 28.071 24.2142 27.8414 23.488 27.8414C22.4666 27.8414 21.7404 28.4411 21.7404 29.3477C21.7404 30.3527 22.3893 30.6292 23.3943 30.8869C24.2283 31.1001 24.3993 31.243 24.3993 31.5217C24.3993 31.8286 24.1299 32.0066 23.6801 32.0066C23.1085 32.0066 22.6376 31.77 22.1902 31.3999L21.5413 32.1777C22.1386 32.7118 22.9023 32.9765 23.659 32.9765C24.7343 32.9765 25.491 32.419 25.491 31.428C25.491 30.5448 24.9194 30.1817 23.9073 29.917Z" fill="#363C54"/>
<path d="M11.0766 38.4747C10.2145 38.2522 9.99893 38.1444 9.99893 37.8164C9.99893 37.5611 10.2215 37.369 10.6408 37.369C11.0625 37.369 11.4982 37.554 11.9386 37.8609L12.5103 37.034C12.0042 36.6264 11.3834 36.3991 10.6549 36.3991C9.63582 36.3991 8.9096 36.9965 8.9096 37.9031C8.9096 38.9081 9.55851 39.1869 10.5635 39.4422C11.3975 39.6577 11.5685 39.8007 11.5685 40.0771C11.5685 40.384 11.2968 40.562 10.8493 40.562C10.2777 40.562 9.80684 40.3278 9.35705 39.9576L8.70813 40.733C9.30785 41.2695 10.0716 41.5319 10.8259 41.5319C11.9035 41.5319 12.6602 40.9767 12.6602 39.9857C12.6602 39.1002 12.0886 38.7371 11.0766 38.4747Z" fill="#363C54"/>
<path d="M13.1521 36.4695V37.4815H14.6701V41.4617H15.7688V37.4815H17.2869V36.4695H13.1521Z" fill="#363C54"/>
<path d="M20.3535 36.3851C18.8144 36.3851 17.6946 37.547 17.6946 38.9667C17.6946 40.398 18.798 41.5459 20.3394 41.5459C21.8786 41.5459 22.9983 40.384 22.9983 38.9667C22.9983 37.533 21.8926 36.3851 20.3535 36.3851ZM20.3535 40.5339C19.468 40.5339 18.8425 39.8217 18.8425 38.9667C18.8425 38.0952 19.4539 37.3971 20.3394 37.3971C21.2226 37.3971 21.8504 38.1093 21.8504 38.9667C21.8504 39.8358 21.2367 40.5339 20.3535 40.5339Z" fill="#363C54"/>
<path d="M26.0155 36.4695H23.9751V41.4617H25.0738V39.9647H25.9078C27.0276 39.9647 27.9248 39.365 27.9248 38.2101C27.9248 37.177 27.2056 36.4695 26.0155 36.4695ZM25.9429 38.9878H25.0738V37.4604H25.9218C26.47 37.4604 26.8144 37.7251 26.8144 38.2171C26.8144 38.6599 26.4934 38.9878 25.9429 38.9878Z" fill="#363C54"/>
<path d="M24.4024 206.873H12.233L13.1038 190.016C13.1523 189.075 13.9291 188.338 14.8706 188.338H21.6557C22.6585 188.338 23.4855 189.124 23.5373 190.125L24.4024 206.873Z" fill="#FFD524"/>
<path d="M17.8457 206.873H12.2327L13.1105 189.877C13.155 189.015 13.8676 188.338 14.7313 188.338H16.4815C17.9089 188.338 19.0378 189.547 18.9397 190.971L17.8457 206.873Z" fill="#F2B111"/>
<path d="M58.6756 32.2778L58.6105 37.8735L56.667 206.142C56.6623 206.547 56.4215 206.872 56.1261 206.872H55.9816C55.3989 206.872 54.9231 206.233 54.91 205.435L52.2174 43.01L52.04 32.2776H58.6756V32.2778Z" fill="#283C61"/>
<path d="M58.6756 32.2778L58.6105 37.8735C56.8352 38.6358 54.2937 40.1419 52.2174 43.01L52.04 32.2776H58.6756V32.2778Z" fill="#192845"/>
<path d="M241.198 32.2778L241.133 37.8735L239.189 206.142C239.185 206.547 238.944 206.872 238.649 206.872H238.504C237.921 206.872 237.445 206.233 237.432 205.435L234.74 43.01L234.562 32.2776H241.198V32.2778Z" fill="#283C61"/>
<path d="M241.198 32.2778L241.133 37.8735C239.357 38.6358 236.816 40.1419 234.74 43.01L234.562 32.2776H241.198V32.2778Z" fill="#192845"/>
<path d="M250 11.2478V31.0727C250 31.4492 249.924 31.8052 249.79 32.1128C249.499 32.7833 248.936 33.2403 248.292 33.2403H46.1783C45.2394 33.2403 44.4724 32.2644 44.4724 31.0729V11.248C44.4724 10.0563 45.2394 9.08032 46.1783 9.08032H248.292C249.233 9.08009 250 10.0561 250 11.2478Z" fill="#192845"/>
<path d="M250 11.2477V31.0727C250 31.4491 249.924 31.8052 249.79 32.1128C249.182 32.4963 248.564 32.8728 247.934 33.2403H162.591C141.673 26.2484 120.842 16.7769 105.552 9.08008H248.292C249.233 9.08008 250 10.056 250 11.2477Z" fill="#283C61"/>
</svg>
