<svg width="389" height="186" viewBox="0 0 389 186" fill="none" xmlns="http://www.w3.org/2000/svg">
<path d="M72.5 86.1124L72.8551 87.5186C72.8551 87.5186 75.5132 90.4029 73.0306 93.9161C73.0306 93.9161 71.908 95.2802 71.3324 94.0977C70.7569 92.9151 71.5478 92.4576 70.7035 90.8101C69.8589 89.1625 69.3502 88.0511 70.1268 86.9741L70.997 85.7826L72.5 86.1124Z" fill="#ECAF94"/>
<path d="M58.5524 52.0544C58.5524 52.0544 59.5898 56.1365 60.4849 59.8687C60.8453 61.372 61.1818 62.8181 61.4196 63.9178C61.6621 65.0475 61.7997 65.8123 61.7468 65.8975C60.9686 67.1604 62.3902 74.8616 63.5144 77.6577C63.6135 77.9061 63.7503 78.1963 63.9143 78.5189C65.4866 81.6014 69.6724 87.651 69.6724 87.651C69.6724 87.651 70.8533 87.7745 71.6256 87.483C72.2699 87.2389 72.7104 86.4514 72.7104 86.4514C72.3361 85.8487 70.8213 78.7315 68.8726 74.7407C68.0388 73.0335 66.811 57.195 65.1961 55.0623C63.8493 53.2835 58.5524 52.0544 58.5524 52.0544Z" fill="#283C61"/>
<path d="M61.7468 65.8975C60.9686 67.1604 62.3902 74.8616 63.5144 77.6578C63.6135 77.9061 63.7503 78.1963 63.9143 78.5189C65.4168 71.8725 62.9269 62.4568 62.9269 62.4568C62.3053 62.7028 61.809 63.2152 61.4196 63.9178C61.6621 65.0475 61.7997 65.8123 61.7468 65.8975Z" fill="#192845"/>
<path d="M50.8602 142.753C50.8602 142.753 50.4605 148.768 51.5966 148.852C51.7477 148.863 57.358 148.863 57.358 148.863H64.5951C64.5951 148.863 64.4732 147.097 62.3798 146.732C60.2864 146.367 56.7823 144.896 55.5139 142.129C54.1798 139.218 50.8602 142.753 50.8602 142.753Z" fill="#0F2949"/>
<path d="M39.9752 142.753C39.9752 142.753 39.5758 148.768 40.7116 148.852C40.8628 148.863 46.4732 148.863 46.4732 148.863H53.7101C53.7101 148.863 53.5883 147.097 51.4949 146.732C49.4013 146.367 45.8973 144.896 44.6292 142.129C43.295 139.218 39.9752 142.753 39.9752 142.753Z" fill="#163560"/>
<path d="M50.5174 128.254C50.339 130.798 49.9763 134.068 50.1055 137.017C50.2867 141.139 50.4169 144.616 50.4169 144.616C53.135 145.54 58.1224 144.419 58.1224 144.419C58.1224 144.419 59.8913 134 61.3486 125.683C62.0024 121.957 62.5445 118.733 62.7473 117.211C63.4029 112.29 62.0493 86.1285 62.0493 86.1285C62.0493 86.1285 54.6944 81.4144 51.6555 83.845C48.6177 86.2747 46.7473 88.6496 51.6433 115.271C52.0151 117.29 50.9164 122.556 50.5174 128.254Z" fill="#FFD524"/>
<path d="M50.5173 128.254C50.3389 130.798 50.0111 134.868 50.1403 137.817C52.6971 135.111 57.7361 129.402 61.3487 125.684C62.0025 121.957 62.5446 118.733 62.7474 117.211C63.4031 112.29 62.0494 86.1287 62.0494 86.1287C62.0494 86.1287 54.6946 81.4146 51.6557 83.8452C48.6178 86.2749 46.7474 88.6498 51.6434 115.271C52.015 117.29 50.9163 122.556 50.5173 128.254Z" fill="#F2B111"/>
<path d="M55.403 86.6606C55.403 86.6606 54.7424 112.85 53.7103 117.705C52.6784 122.561 47.2916 144.788 47.2916 144.788C47.2916 144.788 42.2423 145.248 39.6035 144.118C39.6035 144.118 39.7715 133.823 40.6669 127.775C41.5034 122.125 43.0035 116.959 42.7882 114.917C39.9521 87.9987 41.9996 85.7745 45.2158 83.585C48.4322 81.3955 55.403 86.6606 55.403 86.6606Z" fill="#FFD524"/>
<path d="M45.4213 88.9534C45.4213 88.9534 47.1709 92.464 43.8079 95.1468C43.8079 95.1468 42.3496 96.1442 42.1264 94.848C41.9028 93.5521 42.1607 94.0034 41.8088 92.186C41.4568 90.3685 41.907 88.4889 42.9525 87.6707L45.4213 88.9534Z" fill="#ECAF94"/>
<path d="M60.1687 46.1204C60.1687 46.1204 58.1492 49.1898 58.552 52.0539L55.5637 59.2537L50.1727 51.0119C50.1727 51.0119 53.0204 47.912 54.0836 43.6861L60.1687 46.1204Z" fill="#ECAF94"/>
<path d="M61.0543 48.7393C61.0543 48.7393 53.701 49.0576 53.5672 44.6433C53.4335 40.2289 51.4462 37.2923 56.9464 36.9043C61.4692 36.5854 62.9727 38.4714 63.3757 39.9339C63.7785 41.3963 63.7795 48.5027 61.0543 48.7393Z" fill="#ECAF94"/>
<path d="M43.0522 87.9225C44.632 88.0695 46.807 88.2518 49.446 88.4175C49.9732 88.4505 50.5184 88.4835 51.0816 88.5149C59.0496 88.9608 62.2168 87.6707 62.2168 87.6707C62.2168 87.6707 62.4279 87.4998 62.3611 86.5643C62.0148 81.7455 60.9914 80.3223 61.1152 79.4065C61.3923 77.3486 66.3855 60.5536 66.3855 60.5536C66.3855 60.5536 66.4817 55.2481 60.5814 52.7582C59.9728 52.5005 59.3022 52.274 58.5608 52.0863C58.3026 52.7731 57.5942 53.9198 55.7823 53.7088C53.1038 53.3966 51.1967 51.8175 50.3788 51.0075C50.2308 51.0075 50.1723 51.0121 50.1723 51.0121C49.9721 51.5762 49.8166 52.1646 49.6779 52.7627C49.1942 54.848 48.9112 57.042 47.6312 58.6821C46.3683 60.3016 45.2874 61.8985 44.365 63.4602C43.5974 64.7599 42.9391 66.0361 42.376 67.2794C37.1526 78.8239 41.1932 87.7481 43.0522 87.9225Z" fill="#283C61"/>
<path d="M43.0522 87.9226C44.632 88.0695 46.807 88.2518 49.446 88.4175C50.2157 75.4481 44.931 62.9915 44.931 62.9915C44.7321 63.131 44.5434 63.2877 44.365 63.46C43.4444 64.3542 42.8033 65.6813 42.376 67.2792C40.8017 73.1599 42.1194 82.7143 43.0522 87.9226Z" fill="#192845"/>
<path d="M63.4246 44.5288C63.4246 44.5288 64.8561 50.208 62.4268 51.0077C59.9974 51.8075 53.5484 51.1666 53.5509 44.2041C53.5509 44.2041 56.9353 46.2226 58.552 46.1717C60.1687 46.1206 61.212 45.1876 62.7062 45.9165C62.7062 45.9165 63.2529 45.8798 63.4246 44.5288Z" fill="#461E0F"/>
<path d="M50.1727 51.0117C50.1727 51.0117 45.0325 51.1271 42.3169 54.6608C40.2361 57.3685 38.036 71.8968 38.036 74.0844C38.036 76.2721 40.3788 88.3446 41.6905 89.6564C41.6905 89.6564 42.5394 89.8752 43.6724 89.6564C44.8749 89.424 45.5831 88.7285 45.5831 88.7285C45.5831 88.7285 44.9306 75.2876 44.9306 74.0269C44.9306 72.2015 50.6372 61.0286 50.6372 61.0286C50.6372 61.0286 53.5969 55.7113 50.1727 51.0117Z" fill="#283C61"/>
<path d="M56.196 38.6124C56.3196 38.1617 57.696 39.6124 57.696 39.6124C61.8376 37.8088 62.696 38.6124 62.696 38.6124C60.1577 35.205 53.7903 35.0391 52.5 38.1124C50.3931 43.1305 53.5001 44.1124 53.5001 44.1124C53.5001 44.1124 57.0953 42.587 54.8667 40.5596C54.1282 39.888 55.8142 40.1323 55.696 39.6124C55.6566 39.4389 56.1873 38.7685 56.196 38.6124Z" fill="#461E0F"/>
<path d="M0.0473509 143.536C0.412965 144.768 2.10048 145.589 2.32844 147.095C2.51779 148.344 3.17885 149.122 3.86772 149.351H8.2416C8.34603 149.109 8.58333 148.313 7.35133 148.044C5.89157 147.725 5.34056 145.955 5.43191 144.312C5.47032 143.623 5.45184 142.838 5.41883 142.158C5.37253 141.218 5.29551 140.479 5.29551 140.479L2.19184 139.749L1.86608 140.167L1.55362 140.57C1.55362 140.57 -0.318263 142.304 0.0473509 143.536Z" fill="#233862"/>
<path d="M24.8575 149.351H35.4572C35.3474 148.971 34.9896 148.318 33.8172 148.127C32.1814 147.861 29.3466 146.911 28.7148 144.82C28.6949 144.752 28.6764 144.683 28.6606 144.613C28.1586 142.377 24.5079 145.298 24.5079 145.298C24.5079 145.298 24.4973 145.388 24.4815 145.54C24.3966 146.356 24.1821 148.975 24.8575 149.351Z" fill="#233862"/>
<path d="M33.3826 89.5505C33.3826 89.5505 32.8281 96.4683 32.1764 104.784C31.2907 116.08 30.2256 129.955 30.1199 132.583C29.9378 137.148 29.2068 144.449 29.2068 144.449C29.2068 144.449 27.4736 146.183 24.0045 145.452C24.0045 145.452 20.9133 135.03 20.0303 124.002C20.0166 123.821 20.0029 123.639 19.9892 123.457C19.1679 112.231 17.8906 88.5922 17.8906 88.5922L33.3826 89.5505Z" fill="#F77721"/>
<path d="M33.3826 89.5505C33.3826 89.5505 32.8281 96.4683 32.1764 104.784L20.0303 124.002C20.0166 123.822 20.0029 123.64 19.9892 123.457C19.1679 112.231 17.8906 88.5924 17.8906 88.5924L33.3826 89.5505Z" fill="#E86A13"/>
<path d="M30.8505 90.3721C30.8505 90.3721 20.8567 115.425 14.2852 127.199C7.71386 138.973 5.66032 142.259 5.66032 142.259C5.66032 142.259 1.89538 140.753 1.55322 139.726C1.55322 139.726 4.06602 116.996 8.46668 111.455C10.9535 108.325 13.8745 98.9284 14.0113 95.6428C14.1481 92.3573 14.9012 85.8543 14.9012 85.8543L30.8505 90.3721Z" fill="#F77721"/>
<path d="M17.7014 51.7629C17.7014 51.7629 24.4633 55.0763 28.3617 53.847C28.3617 53.847 27.4021 52.6177 25.7229 51.7027C25.8579 50.9082 25.9627 50.2183 26.0227 49.6336C26.1876 48.2843 26.1876 47.5196 26.1876 47.5196L23.5789 45.4358L21.1047 43.4414C21.2996 49.0489 17.7014 51.7629 17.7014 51.7629Z" fill="#ECAF94"/>
<path d="M14.1379 87.1376C14.1229 87.5572 15.0076 88.037 15.3973 88.2168C18.2913 89.5063 20.9899 90.4057 24.0487 90.7059C27.6623 91.0807 31.9353 90.2558 33.4046 90.2859C33.5545 90.2859 33.6896 90.2261 33.8096 90.1211C33.9145 90.0461 33.9894 85.623 33.9145 80.0608C33.9145 79.8357 33.9145 79.6106 33.8995 79.386V79.3111C33.8694 77.1371 33.7947 74.8583 33.6896 72.5791C33.4797 67.5711 33.09 62.7432 32.4302 60.0745C31.6355 56.9259 29.8362 54.8419 28.2021 53.3275L26.8526 52.1279C25.5033 52.3978 24.0788 52.3231 22.6543 51.6184C21.0951 50.8538 19.3891 49.9959 19.119 50.2056C17.08 51.7199 15.7274 55.1566 14.9928 59.5048C14.573 62.0086 14.3629 64.8125 14.3781 67.7511C14.3781 68.8309 14.408 69.9402 14.468 71.0348C14.8278 76.972 14.468 82.1297 14.2581 85.1135C14.1979 85.9831 14.1528 86.6576 14.1379 87.1376Z" fill="#FFD524"/>
<path d="M14.2579 85.1133C47.0187 85.0683 20.3002 60.689 20.3002 60.689L14.9927 59.5045C14.5729 62.0084 14.3628 64.8123 14.3779 67.7509C14.3779 68.8307 14.4078 69.94 14.4678 71.0346C14.8276 76.9718 14.4678 82.1295 14.2579 85.1133Z" fill="#F2B111"/>
<path d="M34 75.3759L35.2129 74.9871C35.2129 74.9871 36.0616 72.1794 38.9303 73.4361C38.9303 73.4361 40.095 74.0536 39.582 74.7844C39.069 75.5152 39.1628 75.1303 38.4617 76.1829C37.7606 77.2358 36.6511 77.7351 35.7668 77.3371L34.7593 77.3661L34 75.3759Z" fill="#ECAF94"/>
<path d="M17.6665 52.1124C17.6665 52.1124 11.4033 63.7471 18.0749 77.1917C20.1575 81.3885 35.8879 77.3997 35.8879 77.3997C35.8879 77.3997 36.501 76.106 34.8596 74.743C34.8596 74.743 24.3865 72.6722 23.1382 72.325C22.0306 72.0171 22.769 60.128 21.5032 56.6782C20.2372 53.2284 17.6665 52.1124 17.6665 52.1124Z" fill="#FFD524"/>
<path d="M21.0599 45.5857C21.0599 45.5857 22.7692 48.7492 26.0228 49.6336C26.1877 48.2843 26.1877 47.5196 26.1877 47.5196L23.579 45.4358L21.0599 45.5857Z" fill="#E59D80"/>
<path d="M27.3772 47.4283C27.3772 47.4283 20.9264 48.5 20.321 44.4726C19.7153 40.4451 18.475 37.871 22.568 37.0165C26.661 36.1617 27.6941 37.5781 28.2233 38.8732C28.7523 40.1685 29.0396 47.0459 27.3772 47.4283Z" fill="#ECAF94"/>
<path d="M20.3635 44.7506C20.3635 44.7506 20.4937 39.3555 26.3713 38.4897C30.3972 37.897 27.9592 34.5327 27.4989 34C27.4989 34 24.4214 34.5871 21.2714 35.2785C14.66 36.7293 19.6649 43.9482 20.3635 44.7506Z" fill="#461E0F"/>
<path d="M270.266 130.864H192.377V169.968H270.266V130.864Z" fill="#2B478B"/>
<path d="M206.101 162.107C206.101 149.359 216.436 139.024 229.184 139.024C241.933 139.024 252.268 149.359 252.268 162.107C252.268 174.856 241.933 185.192 229.184 185.192C216.436 185.191 206.101 174.856 206.101 162.107Z" fill="#233862"/>
<path d="M241.294 162.109C241.294 164.806 240.411 167.297 238.92 169.307C236.717 172.288 233.176 174.219 229.185 174.219C222.496 174.219 217.073 168.797 217.073 162.109C217.073 156.916 220.339 152.488 224.928 150.765C226.252 150.269 227.686 149.997 229.185 149.997C235.873 149.997 241.294 155.419 241.294 162.109Z" fill="#466AA5"/>
<path d="M467.025 59.3031L147.353 0.0131226C136.222 0.0131226 127.046 7.69356 124.543 17.7061C123.429 21.6522 111.293 66.5766 109.514 81.0186C108.064 91.9059 107.502 104.006 107.354 115.723C107.25 133.267 107.771 142.893 108.685 159.538C109.099 165.426 113.951 169.982 119.839 169.982H201.495C201.465 169.894 201.465 169.805 201.435 169.715C200.755 167.29 200.43 164.746 200.43 162.112C200.43 151.048 206.672 141.433 215.843 136.61C219.719 134.568 224.098 133.414 228.743 133.325C233.684 133.266 238.358 134.45 242.441 136.61C251.524 141.373 257.796 150.811 257.944 161.698C257.973 164.479 257.618 167.171 256.938 169.715C256.908 169.804 256.878 169.893 256.878 169.982H301.671H413.741H419.688C418.978 167.467 418.564 164.834 418.564 162.112C418.564 145.988 431.64 132.942 447.734 132.942C453.948 132.942 459.717 134.864 464.421 138.178C465.287 133.83 476.506 99.3325 467.025 59.3031Z" fill="#192845"/>
<path d="M159.918 141.817H145.653C144.222 141.817 143.051 140.646 143.051 139.215C143.051 137.784 144.222 136.613 145.653 136.613H159.918C161.35 136.613 162.521 137.784 162.521 139.215C162.521 140.646 161.35 141.817 159.918 141.817Z" fill="#FFB93E"/>
<path d="M107.354 115.723C107.502 104.007 108.064 91.906 109.514 81.0186C109.787 78.8035 110.305 75.869 110.987 72.4782C176.689 72.33 378.883 72.7692 469.536 72.9814C472.352 94.2169 469.946 112.887 467.56 124.835H386.363V124.822H107.36C107.338 122 107.335 118.999 107.354 115.723Z" fill="#192845"/>
<path d="M113.27 152.269H107.155C105.833 152.269 104.75 151.186 104.75 149.863V132.813C104.75 131.49 105.833 130.408 107.155 130.408H113.27C114.593 130.408 115.675 131.49 115.675 132.813V149.863C115.675 151.186 114.593 152.269 113.27 152.269Z" fill="#FFB93E"/>
<path d="M469.569 73.0893C465.439 43.3313 452.102 17.8994 435.28 0.0131358H242.383C242.378 0.00848096 242.371 0.004381 242.365 0H147.347C139.209 0 131.873 4.22792 127.789 10.4446C125.655 10.519 123.204 10.7488 120.68 11.2748C111.277 13.2333 105.337 18.4224 103.436 26.3065L102.291 26.1973C100.765 26.0516 99.378 27.0885 99.0866 28.5939L94.055 54.5782C93.721 56.3024 94.9455 57.9387 96.6938 58.1057L103.945 58.7982C105.58 58.9543 107.033 57.7547 107.19 56.1189L109.693 29.8932C109.843 28.3196 108.738 26.9193 107.197 26.6753C108.837 19.5699 112.942 14.2382 121.511 12.4393C123.402 12.042 125.232 11.8949 126.896 11.8889C125.22 14.0436 123.449 21.5123 120.321 33.5935H224.868V73.0895L469.569 73.0893Z" fill="#233862"/>
<path d="M121.358 29.5684C122.622 24.6557 123.644 20.6829 124.538 17.7061H263.595H449.091C456.897 29.7683 463.158 43.8026 466.934 59.2858L467.024 59.3031C467.987 63.3626 468.731 67.3638 469.3 71.2845C469.391 71.8856 469.485 72.4858 469.569 73.0895H469.55H110.864C113.32 60.7294 118.127 41.847 121.358 29.5684Z" fill="#F1E4D1"/>
<path d="M169.542 30.8663C169.7 28.3286 167.683 26.1838 165.141 26.1838H144.993C132.024 26.1838 123.093 36.4573 121.511 49.666L116.833 107.042C116.672 109.007 118.223 110.69 120.195 110.69H161.494C163.236 110.69 164.676 109.335 164.784 107.598L169.542 30.8663Z" fill="#F1E4D1"/>
<path d="M165.601 34.5126L162.156 84.983L160.95 102.642C160.95 104.916 159.109 106.757 156.837 106.757H124.656C119.003 106.757 120.685 98.3736 121.14 93.083L124.697 51.602C124.697 50.8014 124.738 50.0104 124.82 49.2303C125.916 38.6261 134.29 30.3797 144.458 30.3797H156.522C158.97 30.3794 165.601 30.3794 165.601 34.5126Z" fill="#466AA5"/>
<path d="M241.295 162.109C241.295 164.806 240.411 167.297 238.92 169.307C225.475 165.599 224.585 155.418 224.928 150.765C226.252 150.269 227.686 149.997 229.185 149.997C235.873 149.997 241.295 155.419 241.295 162.109Z" fill="#5F87C1"/>
<path d="M162.156 84.9831L160.95 102.642C160.95 104.916 159.109 106.757 156.837 106.757H124.656C119.003 106.757 120.685 98.3736 121.14 93.083L124.697 51.6021C124.697 50.8015 124.738 50.0104 124.82 49.2303C130.429 62.3011 141.662 80.2163 162.156 84.9831Z" fill="#3F6098"/>
<path d="M277.019 66.0065H217.012C214.481 66.0065 212.411 63.9362 212.411 61.4057V29.7146C212.411 27.1843 214.481 25.1138 217.012 25.1138H277.019C279.549 25.1138 281.62 27.1841 281.62 29.7146V61.4057C281.62 63.9362 279.549 66.0065 277.019 66.0065Z" fill="#466AA5"/>
<path d="M201.57 66.0065H174.686C172.931 66.0065 171.496 64.5712 171.496 62.8171V28.3034C171.496 26.5493 172.931 25.114 174.686 25.114H201.57C203.324 25.114 204.759 26.5493 204.759 28.3034V62.8169C204.759 64.5712 203.324 66.0065 201.57 66.0065Z" fill="#466AA5"/>
<path d="M354.696 66.0065H294.689C292.158 66.0065 290.088 63.9362 290.088 61.4057V29.7146C290.088 27.1843 292.158 25.1138 294.689 25.1138H354.696C357.226 25.1138 359.297 27.1841 359.297 29.7146V61.4057C359.297 63.9362 357.226 66.0065 354.696 66.0065Z" fill="#466AA5"/>
<path d="M431.32 66.0065H371.313C368.782 66.0065 366.712 63.9362 366.712 61.4057V29.7146C366.712 27.1843 368.782 25.1138 371.313 25.1138H431.32C433.85 25.1138 435.92 27.1841 435.92 29.7146V61.4057C435.92 63.9362 433.85 66.0065 431.32 66.0065Z" fill="#466AA5"/>
</svg>
