<svg width="30" height="30" viewBox="0 0 30 30" fill="none" xmlns="http://www.w3.org/2000/svg">
<path d="M15.9375 15.9375C15.9375 16.4553 15.5178 16.875 15 16.875C14.4822 16.875 14.0625 16.4553 14.0625 15.9375C14.0625 15.4197 14.4822 15 15 15C15.5178 15 15.9375 15.4197 15.9375 15.9375Z" fill="#F1E4D1"/>
<path d="M9.375 19.6875C9.89277 19.6875 10.3125 19.2678 10.3125 18.75C10.3125 18.2322 9.89277 17.8125 9.375 17.8125C8.85723 17.8125 8.4375 18.2322 8.4375 18.75C8.4375 19.2678 8.85723 19.6875 9.375 19.6875Z" fill="#F1E4D1"/>
<path d="M10.3125 21.5625C10.3125 22.0803 9.89277 22.5 9.375 22.5C8.85723 22.5 8.4375 22.0803 8.4375 21.5625C8.4375 21.0447 8.85723 20.625 9.375 20.625C9.89277 20.625 10.3125 21.0447 10.3125 21.5625Z" fill="#F1E4D1"/>
<path d="M12.1875 19.6875C12.7053 19.6875 13.125 19.2678 13.125 18.75C13.125 18.2322 12.7053 17.8125 12.1875 17.8125C11.6697 17.8125 11.25 18.2322 11.25 18.75C11.25 19.2678 11.6697 19.6875 12.1875 19.6875Z" fill="#F1E4D1"/>
<path d="M13.125 21.5625C13.125 22.0803 12.7053 22.5 12.1875 22.5C11.6697 22.5 11.25 22.0803 11.25 21.5625C11.25 21.0447 11.6697 20.625 12.1875 20.625C12.7053 20.625 13.125 21.0447 13.125 21.5625Z" fill="#F1E4D1"/>
<path d="M15 19.6875C15.5178 19.6875 15.9375 19.2678 15.9375 18.75C15.9375 18.2322 15.5178 17.8125 15 17.8125C14.4822 17.8125 14.0625 18.2322 14.0625 18.75C14.0625 19.2678 14.4822 19.6875 15 19.6875Z" fill="#F1E4D1"/>
<path d="M15.9375 21.5625C15.9375 22.0803 15.5178 22.5 15 22.5C14.4822 22.5 14.0625 22.0803 14.0625 21.5625C14.0625 21.0447 14.4822 20.625 15 20.625C15.5178 20.625 15.9375 21.0447 15.9375 21.5625Z" fill="#F1E4D1"/>
<path d="M17.8125 19.6875C18.3303 19.6875 18.75 19.2678 18.75 18.75C18.75 18.2322 18.3303 17.8125 17.8125 17.8125C17.2947 17.8125 16.875 18.2322 16.875 18.75C16.875 19.2678 17.2947 19.6875 17.8125 19.6875Z" fill="#F1E4D1"/>
<path d="M18.75 21.5625C18.75 22.0803 18.3303 22.5 17.8125 22.5C17.2947 22.5 16.875 22.0803 16.875 21.5625C16.875 21.0447 17.2947 20.625 17.8125 20.625C18.3303 20.625 18.75 21.0447 18.75 21.5625Z" fill="#F1E4D1"/>
<path d="M20.625 19.6875C21.1428 19.6875 21.5625 19.2678 21.5625 18.75C21.5625 18.2322 21.1428 17.8125 20.625 17.8125C20.1072 17.8125 19.6875 18.2322 19.6875 18.75C19.6875 19.2678 20.1072 19.6875 20.625 19.6875Z" fill="#F1E4D1"/>
<path d="M18.75 15.9375C18.75 16.4553 18.3303 16.875 17.8125 16.875C17.2947 16.875 16.875 16.4553 16.875 15.9375C16.875 15.4197 17.2947 15 17.8125 15C18.3303 15 18.75 15.4197 18.75 15.9375Z" fill="#F1E4D1"/>
<path d="M20.625 16.875C21.1428 16.875 21.5625 16.4553 21.5625 15.9375C21.5625 15.4197 21.1428 15 20.625 15C20.1072 15 19.6875 15.4197 19.6875 15.9375C19.6875 16.4553 20.1072 16.875 20.625 16.875Z" fill="#F1E4D1"/>
<path fill-rule="evenodd" clip-rule="evenodd" d="M8.4375 2.8125C8.95527 2.8125 9.375 3.23223 9.375 3.75V5.625H20.625V3.75C20.625 3.23223 21.0447 2.8125 21.5625 2.8125C22.0803 2.8125 22.5 3.23223 22.5 3.75V5.625H23.4375C25.5086 5.625 27.1875 7.30393 27.1875 9.375V23.4375C27.1875 25.5086 25.5086 27.1875 23.4375 27.1875H6.5625C4.49143 27.1875 2.8125 25.5086 2.8125 23.4375V9.375C2.8125 7.30393 4.49143 5.625 6.5625 5.625H7.5V3.75C7.5 3.23223 7.91973 2.8125 8.4375 2.8125ZM25.3125 14.0625C25.3125 13.027 24.473 12.1875 23.4375 12.1875H6.5625C5.52697 12.1875 4.6875 13.027 4.6875 14.0625V23.4375C4.6875 24.473 5.52697 25.3125 6.5625 25.3125H23.4375C24.473 25.3125 25.3125 24.473 25.3125 23.4375V14.0625Z" fill="#F1E4D1"/>
</svg>
