<svg width="30" height="30" viewBox="0 0 30 30" fill="none" xmlns="http://www.w3.org/2000/svg">
<path fill-rule="evenodd" clip-rule="evenodd" d="M10.2018 3.22595C10.8617 2.89604 11.6383 2.89604 12.2982 3.22595L18.5404 6.34706C18.6723 6.41304 18.8277 6.41304 18.9596 6.34706L23.7956 3.92908C25.354 3.1499 27.1875 4.28309 27.1875 6.02539V21.6309C27.1875 22.5187 26.6859 23.3302 25.8919 23.7272L19.7982 26.7741C19.1383 27.104 18.3617 27.104 17.7018 26.7741L11.4596 23.653C11.3277 23.587 11.1723 23.587 11.0404 23.653L6.20441 26.071C4.64604 26.8502 2.8125 25.717 2.8125 23.9747V8.36914C2.8125 7.48139 3.31407 6.66984 4.10809 6.27283L10.2018 3.22595ZM11.25 7.50002C11.7678 7.50002 12.1875 7.91975 12.1875 8.43752V18.75C12.1875 19.2678 11.7678 19.6875 11.25 19.6875C10.7322 19.6875 10.3125 19.2678 10.3125 18.75V8.43752C10.3125 7.91975 10.7322 7.50002 11.25 7.50002ZM19.6875 11.25C19.6875 10.7323 19.2678 10.3125 18.75 10.3125C18.2322 10.3125 17.8125 10.7323 17.8125 11.25V21.5625C17.8125 22.0803 18.2322 22.5 18.75 22.5C19.2678 22.5 19.6875 22.0803 19.6875 21.5625V11.25Z" fill="#F1E4D1"/>
</svg>
