<svg width="39" height="39" viewBox="0 0 39 39" fill="none" xmlns="http://www.w3.org/2000/svg">
<g clip-path="url(#clip0_649_2811)">
<path d="M19.537 37.621C29.545 37.621 37.658 29.508 37.658 19.5C37.658 9.49208 29.545 1.37903 19.537 1.37903C9.52906 1.37903 1.41602 9.49208 1.41602 19.5C1.41602 29.508 9.52906 37.621 19.537 37.621Z" stroke="#192845" stroke-width="1.5" stroke-linecap="round" stroke-linejoin="round"/>
<path d="M15.0819 24.899V25.949C15.1068 26.5019 14.6806 26.971 14.1279 26.999C13.5748 26.9715 13.148 26.5022 13.1729 25.949V24.712M23.9921 24.899V25.949C23.9568 26.3122 24.1306 26.6639 24.4405 26.8564C24.7504 27.049 25.1427 27.049 25.4526 26.8564C25.7626 26.6639 25.9364 26.3122 25.9011 25.949V24.712" stroke="#192845" stroke-width="1.5" stroke-linecap="round" stroke-linejoin="round"/>
<path d="M13.5782 24.0809C13.2297 23.8571 12.7657 23.9583 12.5419 24.3069C12.3182 24.6554 12.4193 25.1194 12.7679 25.3432L13.5782 24.0809ZM13.8091 24.899L13.8081 25.649H13.8091V24.899ZM26.3052 25.3432C26.6538 25.1194 26.755 24.6554 26.5312 24.3069C26.3074 23.9583 25.8435 23.8571 25.4949 24.0809L26.3052 25.3432ZM12.7567 25.3359C13.1013 25.5658 13.567 25.4729 13.7969 25.1284C14.0268 24.7838 13.9339 24.3181 13.5894 24.0882L12.7567 25.3359ZM12.5371 23.499L13.2871 23.5114V23.499H12.5371ZM13.2871 18.199C13.2871 17.7848 12.9513 17.449 12.5371 17.449C12.1228 17.449 11.7871 17.7848 11.7871 18.199H13.2871ZM25.4847 24.0882C25.1402 24.3181 25.0473 24.7838 25.2772 25.1284C25.5072 25.4729 25.9729 25.5658 26.3174 25.3359L25.4847 24.0882ZM26.5371 23.499H25.787L25.7872 23.5114L26.5371 23.499ZM27.2871 18.199C27.2871 17.7848 26.9513 17.449 26.5371 17.449C26.1228 17.449 25.7871 17.7848 25.7871 18.199H27.2871ZM25.7871 18.199C25.7871 18.6132 26.1228 18.949 26.5371 18.949C26.9513 18.949 27.2871 18.6132 27.2871 18.199H25.7871ZM26.3371 12.651L25.6784 13.0097C25.6812 13.0149 25.6841 13.0201 25.6871 13.0252L26.3371 12.651ZM25.2641 11.999L25.2789 11.2492C25.274 11.2491 25.269 11.249 25.2641 11.249V11.999ZM13.8101 11.999V11.249C13.8051 11.249 13.8001 11.2491 13.7952 11.2492L13.8101 11.999ZM12.7371 12.651L13.3871 13.0252C13.39 13.0201 13.3929 13.0149 13.3957 13.0097L12.7371 12.651ZM11.7871 18.199C11.7871 18.6132 12.1228 18.949 12.5371 18.949C12.9513 18.949 13.2871 18.6132 13.2871 18.199H11.7871ZM12.7679 25.3432C13.0783 25.5424 13.4393 25.6486 13.8081 25.649L13.81 24.149C13.7278 24.1489 13.6474 24.1253 13.5782 24.0809L12.7679 25.3432ZM13.8091 25.649H25.2641V24.149H13.81L13.8091 25.649ZM25.2641 25.649C25.6329 25.6486 25.9948 25.5424 26.3052 25.3432L25.4949 24.0809C25.4257 24.1253 25.3463 24.1489 25.2641 24.149V25.649ZM13.5894 24.0882C13.3971 23.9598 13.2832 23.7426 13.2871 23.5114L11.7872 23.4867C11.775 24.2278 12.1402 24.9244 12.7567 25.3359L13.5894 24.0882ZM13.2871 23.499V18.199H11.7871V23.499H13.2871ZM26.3174 25.3359C26.9339 24.9244 27.2992 24.2278 27.287 23.4867L25.7872 23.5114C25.791 23.7426 25.677 23.9598 25.4847 24.0882L26.3174 25.3359ZM27.2871 23.499V18.199H25.7871L25.787 23.499H27.2871ZM27.2871 18.199V13.399H25.7871V18.199H27.2871ZM27.2871 13.399C27.287 13.0051 27.1835 12.6182 26.9871 12.2769L25.6871 13.0252C25.7525 13.139 25.787 13.2677 25.7871 13.399H27.2871ZM26.9957 12.2924C26.6523 11.6616 25.997 11.2634 25.2789 11.2492L25.2492 12.7489C25.4287 12.7524 25.5925 12.852 25.6784 13.0097L26.9957 12.2924ZM25.2641 11.249H13.8101V12.749H25.2641V11.249ZM13.7952 11.2492C13.0771 11.2634 12.4218 11.6616 12.0784 12.2924L13.3957 13.0097C13.4816 12.852 13.6454 12.7524 13.8249 12.7489L13.7952 11.2492ZM12.0871 12.2769C11.8906 12.6182 11.7871 13.005 11.7871 13.3989L13.2871 13.3992C13.2871 13.2679 13.3216 13.139 13.3871 13.0252L12.0871 12.2769ZM11.7871 13.3989V18.199H13.2871V13.3992L11.7871 13.3989Z" fill="#192845"/>
<path d="M14.87 21.399H15.648M23.4259 21.399H24.2039M26.5371 18.199H12.5371" stroke="#192845" stroke-width="1.5" stroke-linecap="round" stroke-linejoin="round"/>
</g>
<defs>
<clipPath id="clip0_649_2811">
<rect width="39" height="39" fill="white"/>
</clipPath>
</defs>
</svg>
