<svg width="84" height="84" viewBox="0 0 84 84" fill="none" xmlns="http://www.w3.org/2000/svg">
<path fill-rule="evenodd" clip-rule="evenodd" d="M42 84C65.196 84 84 65.196 84 42C84 18.804 65.196 0 42 0C18.804 0 0 18.804 0 42C0 65.196 18.804 84 42 84ZM65.0608 31.2515C66.5804 29.2849 66.2181 26.4588 64.2515 24.9392C62.285 23.4196 59.4588 23.7819 57.9392 25.7485L35.7369 54.4809L25.8448 43.4897C24.1823 41.6424 21.337 41.4926 19.4897 43.1552C17.6424 44.8177 17.4926 47.663 19.1552 49.5103L32.6552 64.5103C33.5479 65.5023 34.8349 66.0468 36.1685 65.9968C37.5022 65.9469 38.7448 65.3075 39.5608 64.2515L65.0608 31.2515Z" fill="#192845"/>
</svg>
