<svg width="30" height="30" viewBox="0 0 30 30" fill="none" xmlns="http://www.w3.org/2000/svg">
<path fill-rule="evenodd" clip-rule="evenodd" d="M15.4603 25.351C15.43 25.3685 15.4063 25.3821 15.3895 25.3915L15.3616 25.4071C15.1387 25.5294 14.8622 25.5285 14.6392 25.4075L14.6105 25.3915C14.5937 25.3821 14.57 25.3685 14.5397 25.351C14.4793 25.316 14.393 25.265 14.2845 25.1982C14.0675 25.0646 13.7612 24.8676 13.3954 24.6091C12.6649 24.0931 11.6903 23.3274 10.7135 22.3273C8.76932 20.3368 6.75 17.3462 6.75 13.5C6.75 8.94365 10.4437 5.25 15 5.25C19.5563 5.25 23.25 8.94365 23.25 13.5C23.25 17.3462 21.2307 20.3368 19.2865 22.3273C18.3097 23.3274 17.3351 24.0931 16.6046 24.6091C16.2388 24.8676 15.9325 25.0646 15.7155 25.1982C15.607 25.265 15.5207 25.316 15.4603 25.351ZM15 16.5C13.3431 16.5 12 15.1569 12 13.5C12 11.8431 13.3431 10.5 15 10.5C16.6569 10.5 18 11.8431 18 13.5C18 15.1569 16.6569 16.5 15 16.5Z" fill="#192845"/>
<circle cx="15" cy="15" r="14.5" transform="matrix(-1 0 0 1 30 0)" stroke="#192845"/>
</svg>
