<svg width="19" height="20" viewBox="0 0 19 20" fill="none" xmlns="http://www.w3.org/2000/svg">
<path d="M12.1684 15.3156C14.0629 15.0909 15.8898 14.6454 17.6227 14.0058C16.1859 12.4109 15.3113 10.2995 15.3113 7.98389V7.28307C15.3115 7.26669 15.3115 7.2503 15.3115 7.23389C15.3115 3.92018 12.6252 1.23389 9.31152 1.23389C5.99781 1.23389 3.31152 3.92018 3.31152 7.23389L3.31133 7.98389C3.31133 10.2995 2.4368 12.4109 1 14.0058C2.73293 14.6455 4.55996 15.0909 6.45466 15.3156M12.1684 15.3156C11.2315 15.4267 10.2781 15.4839 9.31133 15.4839C8.34469 15.4839 7.3914 15.4267 6.45466 15.3156M12.1684 15.3156C12.2613 15.605 12.3115 15.9136 12.3115 16.2339C12.3115 17.8907 10.9684 19.2339 9.31152 19.2339C7.65467 19.2339 6.31152 17.8907 6.31152 16.2339C6.31152 15.9136 6.36171 15.605 6.45466 15.3156" stroke="#192845" stroke-width="1.5" stroke-linecap="round" stroke-linejoin="round"/>
</svg>
